<svg version="1.0" xmlns="http://www.w3.org/2000/svg"
 width="240.000000pt" height="65.000000pt" viewBox="0 0 240.000000 65.000000"
 preserveAspectRatio="xMidYMid meet">
    <g id="img">
        <rect id="rect3778" height="64" width="240" y="0" x="0" fill="none"/>
        <g id="g4194">
            <g transform="translate(0.000000,65.000000) scale(0.026461,-0.015222)"
fill="currentColor" stroke="none">
                <path d="M2789 4248 c-34 -9 -40 -17 -89 -118 l-52 -109 -62 44 c-147 107
-128 99 -192 84 l-56 -14 130 -100 c72 -55 132 -105 132 -111 0 -7 -29 -76
-65 -155 -36 -78 -64 -144 -62 -145 1 -2 26 4 55 12 l53 16 52 104 c35 71 56
103 65 99 8 -3 51 -32 96 -65 87 -63 97 -66 160 -47 l39 12 -129 99 c-71 55
-131 101 -132 102 -2 1 24 65 58 141 34 76 64 144 67 151 6 14 -16 14 -68 0z"/>
                <path d="M3010 3476 c0 -3 23 -69 50 -147 28 -78 50 -147 50 -153 0 -6 -61
-49 -135 -96 -74 -47 -135 -88 -135 -91 0 -3 23 -13 52 -22 l51 -16 100 60
c55 33 102 57 106 54 3 -4 24 -54 46 -112 l40 -106 53 -18 c28 -10 52 -15 52
-12 0 3 -22 70 -50 150 -27 80 -50 150 -50 156 1 7 61 50 135 97 73 46 132 87
129 91 -2 4 -24 14 -49 23 l-46 15 -99 -60 c-55 -33 -104 -58 -108 -55 -5 3
-26 53 -48 110 -39 106 -39 106 -83 121 -46 16 -61 18 -61 11z"/>
                <path d="M2370 3214 c55 -70 100 -131 100 -136 0 -6 -41 -62 -92 -126 -50 -65
-96 -123 -101 -129 -7 -10 4 -13 49 -13 l59 0 74 90 c40 50 77 90 81 90 5 0
41 -40 82 -89 l73 -90 59 0 c45 -1 56 2 49 12 -5 6 -51 65 -102 130 -51 65
-91 123 -88 131 4 11 143 190 185 239 14 16 11 17 -45 17 l-60 0 -73 -87 c-40
-49 -76 -88 -80 -88 -4 0 -40 39 -80 88 l-73 87 -58 0 -59 0 100 -126z"/>
                <path d="M1394 3152 c-240 -172 -274 -200 -330 -276 -108 -143 -149 -268 -149
-456 0 -136 21 -228 71 -319 13 -24 24 -47 24 -51 0 -5 -43 -82 -96 -171 -53
-90 -100 -173 -104 -184 -5 -13 -24 -25 -53 -32 -40 -11 -47 -17 -61 -55 -28
-77 -36 -122 -35 -188 l2 -65 7 72 c4 39 18 102 30 139 l23 67 221 -7 c121 -3
249 -9 283 -13 l62 -6 23 -66 c23 -70 29 -163 15 -258 -7 -52 -7 -53 17 -53
35 0 137 -80 195 -154 28 -35 66 -99 84 -142 56 -130 57 -120 -18 -127 -114
-11 -221 -90 -260 -191 l-17 -43 -96 -6 c-53 -4 -124 -7 -157 -7 l-60 1 -29
64 c-33 73 -84 126 -155 159 -67 30 -188 29 -254 -3 -62 -30 -146 -114 -154
-152 -5 -27 -9 -30 -42 -27 l-36 3 2 69 c5 131 61 283 145 392 43 55 162 154
186 154 13 0 16 13 6 23 -11 11 -94 -55 -173 -139 -80 -84 -126 -161 -136
-227 -5 -30 -20 -51 -76 -104 -38 -37 -72 -77 -75 -90 -8 -29 -24 -30 -24 -1
0 13 28 51 75 99 41 42 75 82 75 89 0 36 -137 -54 -180 -118 -65 -98 -73 -193
-26 -297 52 -115 143 -179 268 -189 62 -4 90 -13 148 -43 67 -35 79 -38 154
-38 65 0 90 5 124 23 68 36 146 119 161 172 7 25 20 65 29 90 l15 45 15 -43
c8 -25 37 -68 68 -101 64 -69 125 -97 226 -104 53 -3 77 -11 115 -35 86 -55
203 -67 285 -28 119 57 184 149 195 273 5 65 3 77 -24 135 -34 72 -97 139
-159 169 -39 18 -44 26 -63 87 -11 37 -31 83 -43 102 -12 19 -23 43 -25 54 -8
45 -110 146 -216 214 -50 32 -57 40 -52 62 3 14 8 59 11 101 6 64 3 89 -20
167 -26 86 -26 92 -10 116 9 15 14 35 11 46 -6 24 -4 24 34 4 44 -22 169 -44
255 -44 169 0 298 47 491 179 156 107 156 107 147 123 -6 11 -141 205 -150
217 -2 2 -47 -28 -101 -66 -54 -39 -117 -82 -140 -96 -218 -137 -526 -52 -638
176 -98 200 -55 416 112 553 32 27 132 101 221 163 90 63 161 120 159 126 -6
14 -147 214 -156 219 -3 2 -92 -57 -197 -132z m-615 -2407 c60 -16 105 -53
140 -115 l22 -40 -25 0 c-15 0 -31 8 -38 20 -7 11 -23 20 -35 20 -28 0 -28 -3
-1 -40 15 -21 23 -49 26 -90 4 -53 1 -65 -22 -101 -28 -42 -95 -79 -142 -79
-66 0 -138 60 -152 125 -9 45 -36 59 -45 24 -14 -54 68 -149 147 -170 79 -21
169 12 226 83 25 31 37 38 66 38 32 0 35 -2 28 -22 -22 -74 -76 -138 -147
-174 -17 -10 -64 -19 -103 -22 -112 -7 -192 37 -268 146 -35 51 -49 161 -24
190 9 9 21 33 27 53 16 50 75 115 130 144 54 28 112 31 190 10z m976 -18 c28
-13 58 -33 67 -44 19 -21 52 -93 45 -100 -10 -9 -56 10 -78 33 -12 13 -31 24
-42 24 -20 0 -20 0 1 -23 48 -51 66 -142 38 -195 -35 -66 -127 -114 -189 -98
-63 15 -127 99 -127 166 0 25 -4 31 -17 28 -14 -3 -18 -14 -18 -55 1 -65 34
-111 107 -147 92 -46 164 -31 245 50 41 41 61 54 84 54 38 0 38 -19 0 -86 -51
-88 -135 -136 -238 -136 -111 -1 -209 65 -255 170 -16 35 -19 61 -17 121 4 69
8 82 42 134 44 66 91 107 144 124 57 19 150 10 208 -20z"/>
                <path d="M3333 1755 c-180 -39 -318 -182 -368 -380 -23 -91 -23 -285 0 -370
62 -238 247 -385 484 -385 194 0 338 84 416 243 56 114 56 114 -50 147 -49 16
-97 29 -106 29 -10 1 -21 -18 -33 -55 -53 -168 -249 -227 -391 -118 -140 106
-152 507 -19 638 65 64 171 91 261 65 57 -16 134 -87 152 -141 l12 -36 107 28
c121 30 118 26 76 116 -38 81 -96 139 -177 179 -114 56 -232 69 -364 40z"/>
                <path d="M8790 1662 l-95 -58 -3 -82 -3 -82 -44 0 -45 0 0 -80 0 -80 43 0 44
0 6 -260 c6 -226 9 -267 25 -304 27 -59 75 -87 161 -94 63 -4 176 12 185 26 5
8 -10 151 -16 157 -2 2 -23 -1 -46 -7 -35 -9 -46 -8 -67 6 l-25 16 0 230 0
230 70 0 70 0 0 80 0 80 -70 0 -70 0 0 140 c0 106 -3 140 -12 140 -7 0 -56
-27 -108 -58z"/>
                <path d="M4353 1445 c-120 -33 -204 -102 -256 -213 -31 -64 -32 -72 -32 -192
0 -107 4 -133 23 -182 62 -155 223 -246 414 -236 113 7 191 43 267 123 64 67
98 140 110 231 22 181 -51 346 -191 427 -91 54 -228 71 -335 42z m192 -174
c86 -39 132 -139 122 -263 -14 -160 -133 -253 -260 -204 -77 29 -118 90 -132
192 -15 118 32 229 115 272 53 27 101 28 155 3z"/>
                <path d="M5435 1451 c-49 -12 -97 -41 -142 -84 l-43 -41 0 57 0 57 -100 0
-100 0 0 -400 0 -400 104 0 104 0 4 258 c3 252 4 260 29 307 49 95 173 125
240 58 41 -40 49 -103 49 -390 l0 -233 106 0 106 0 -5 313 c-4 352 -7 367 -73
434 -63 62 -177 89 -279 64z"/>
                <path d="M6385 1451 c-49 -12 -97 -41 -142 -84 l-43 -41 0 57 0 57 -100 0
-100 0 0 -400 0 -400 104 0 104 0 4 258 c3 252 4 260 29 307 49 95 173 125
240 58 41 -40 49 -103 49 -390 l0 -233 106 0 106 0 -5 313 c-4 352 -7 367 -73
434 -63 62 -177 89 -279 64z"/>
                <path d="M7160 1447 c-93 -26 -183 -106 -225 -200 -35 -77 -49 -195 -36 -292
29 -209 150 -322 356 -333 153 -8 263 39 329 140 59 92 59 93 -31 108 -43 6
-90 14 -104 17 -22 4 -28 0 -39 -26 -21 -53 -64 -81 -121 -81 -28 0 -63 7 -78
15 -39 20 -78 69 -91 113 -21 78 -41 72 255 72 l265 0 0 63 c-1 245 -136 403
-353 413 -49 2 -101 -1 -127 -9z m198 -174 c42 -32 64 -68 69 -117 l6 -46
-162 0 -161 0 5 25 c3 14 7 36 10 49 7 33 53 86 90 102 39 18 110 12 143 -13z"/>
                <path d="M8050 1446 c-155 -42 -248 -156 -270 -329 -27 -213 54 -394 208 -464
82 -38 214 -44 312 -14 62 19 82 31 130 79 41 42 62 74 79 120 13 34 22 64 20
67 -6 5 -200 38 -202 34 -2 -2 -12 -26 -22 -53 -25 -61 -60 -88 -122 -93 -71
-6 -130 27 -163 92 -22 44 -25 62 -25 160 0 98 3 116 25 159 32 62 74 86 152
86 65 0 106 -26 128 -82 8 -18 14 -34 15 -36 4 -5 189 30 197 37 12 11 -41
114 -80 154 -20 21 -53 47 -72 57 -76 39 -220 51 -310 26z"/>
            </g>
        </g>
    </g>
</svg>