<?xml version="1.0" standalone="no"?>
<!DOCTYPE svg PUBLIC "-//W3C//DTD SVG 20010904//EN"
 "http://www.w3.org/TR/2001/REC-SVG-20010904/DTD/svg10.dtd">
<svg version="1.0" xmlns="http://www.w3.org/2000/svg"
 width="24.000000pt" height="24.000000pt" viewBox="0 0 24.000000 24.000000"
 preserveAspectRatio="xMidYMid meet">
<metadata>
Created by potrace 1.16, written by Peter Selinger 2001-2019
</metadata>
<g transform="translate(0.000000,24.000000) scale(0.004687,-0.004687)"
fill="#000000" stroke="none">
<path d="M3680 4764 c-150 -23 -244 -68 -329 -160 -282 -302 -115 -792 292
-856 259 -40 519 132 576 382 15 64 13 196 -3 256 -32 120 -126 247 -227 306
-86 50 -230 84 -309 72z m145 -274 c176 -75 210 -308 64 -433 -146 -126 -372
-51 -420 137 -23 90 7 183 79 248 52 47 74 58 131 67 55 9 92 4 146 -19z"/>
<path d="M441 4369 c-99 -50 -149 -131 -150 -246 -1 -57 15 -107 178 -555 98
-271 185 -511 192 -533 11 -32 14 -275 19 -1185 l5 -1145 33 -67 c40 -82 111
-149 189 -178 54 -20 67 -20 817 -18 l761 3 53 28 c67 35 124 92 159 159 l28
53 3 1144 c2 901 5 1142 15 1138 6 -2 65 -24 129 -48 l118 -44 2 -1100 3
-1100 28 -57 c94 -191 341 -241 496 -102 96 87 97 91 137 585 19 239 36 444
39 456 8 34 39 46 63 25 18 -16 23 -55 55 -474 39 -503 39 -506 113 -588 90
-100 246 -130 369 -71 82 38 139 104 165 190 l21 65 -30 611 c-17 335 -33 643
-36 683 l-6 73 31 -16 c112 -58 280 -27 365 67 65 71 80 112 80 218 l0 95
-119 255 c-65 140 -154 340 -197 443 -92 224 -151 327 -240 417 -127 131 -261
172 -554 173 -190 1 -309 -16 -460 -64 -256 -81 -349 -80 -617 7 -75 24 -154
44 -176 44 l-39 0 -102 275 c-112 299 -137 341 -225 388 l-41 22 -805 3 -806
2 -63 -31z m1607 -231 c5 -7 53 -130 107 -274 l96 -261 -26 -38 c-114 -168
-33 -404 164 -475 55 -21 59 -24 71 -68 11 -38 14 -266 17 -1151 4 -1215 8
-1132 -57 -1166 -26 -14 -115 -15 -725 -13 l-695 3 -32 33 -33 32 -6 1138 c-4
889 -8 1148 -18 1187 -7 28 -94 269 -192 537 -99 268 -179 494 -179 501 0 8 3
17 7 20 3 4 340 7 748 7 582 0 745 -3 753 -12z m1923 -679 c92 -14 159 -55
215 -132 57 -77 78 -117 153 -299 33 -80 114 -263 180 -408 67 -144 121 -271
121 -281 0 -45 -66 -75 -102 -46 -9 6 -51 67 -94 135 -92 145 -110 162 -173
162 -64 0 -106 -30 -123 -87 -3 -13 14 -404 38 -870 24 -467 44 -865 44 -885
0 -46 -28 -78 -69 -78 -42 0 -71 40 -71 99 0 25 -15 231 -34 457 -37 467 -38
468 -128 549 -140 126 -366 84 -453 -85 -26 -49 -33 -111 -65 -530 -17 -223
-36 -417 -42 -432 -5 -15 -19 -30 -30 -34 -28 -9 -78 15 -89 43 -5 14 -9 479
-9 1116 0 738 -4 1104 -11 1130 -6 21 -27 55 -47 75 -33 33 -72 49 -362 151
-360 126 -375 133 -390 161 -18 34 22 89 65 90 12 0 75 -18 140 -40 173 -58
265 -73 415 -68 107 4 142 10 245 41 267 80 460 99 676 66z"/>
<path d="M985 3988 c-32 -17 -76 -61 -91 -90 -30 -57 -19 -113 76 -377 49
-138 96 -264 105 -280 8 -17 36 -43 63 -58 l47 -28 367 -3 c245 -2 381 1 408
8 87 23 152 119 136 202 -10 56 -223 558 -246 583 -51 54 -58 55 -467 55 -256
-1 -384 -4 -398 -12z m750 -395 c37 -93 70 -174 72 -181 4 -10 -50 -12 -262
-10 l-268 3 -12 35 c-7 19 -35 99 -63 178 l-50 142 258 0 258 0 67 -167z"/>
</g>
</svg>
